<svg xmlns="http://www.w3.org/2000/svg" id="Icon" enable-background="new 0 0 64 64" viewBox="0 0 64 64"><path fill="#ff4d6f" d="M43.999,20.801c-0.78,0-1.46,0.95-1.79,2.33l-3.276,0.547c-0.276-3.152-1.522-6.023-3.444-8.313l3.87-3.044
	c1.2,0.73,2.35,0.91,2.91,0.35c0.8-0.8,0.11-2.77-1.53-4.41c-1.64-1.64-3.61-2.33-4.41-1.53c-0.56,0.56-0.38,1.71,0.35,2.92
	l-3.042,3.861c-2.357-1.98-5.334-3.235-8.596-3.46L25.7,4.78C27.07,4.45,28,3.78,28,3c0-1.1-1.88-2-4.2-2s-4.2,0.9-4.2,2
	c0,0.78,0.93,1.45,2.3,1.78l0.66,5.28c0,0-5.552,1.273-8.126,3.411L12.1,10.63c0.74-1.2,0.93-2.34,0.38-2.89
	C11.7,6.96,9.74,7.66,8.1,9.3s-2.34,3.6-1.56,4.38c0.55,0.55,1.69,0.36,2.89-0.38l2.862,2.351c-1.777,2.224-2.945,4.956-3.222,7.953
	L5.115,23.11c-0.377-1.37-1.141-2.31-2.032-2.31C1.827,20.8,0.8,22.68,0.8,25s1.027,4.2,2.283,4.2c0.89,0,1.655-0.94,2.032-2.31
	l3.956-0.494c0.293,3.173,1.576,6.053,3.534,8.343l-5.485,4.582c-1.54-1.06-3.05-1.39-3.75-0.69c-0.91,0.91-0.08,3.21,1.85,5.15
	c1.94,1.93,4.24,2.76,5.15,1.85c0.7-0.7,0.37-2.21-0.69-3.75l4.582-5.485c2.599,2.223,8.219,3.545,8.219,3.545l-0.55,3.27
	c-1.38,0.33-2.33,1.01-2.33,1.79c0,1.1,1.88,2,4.2,2s4.2-0.9,4.2-2c0-0.78-0.95-1.46-2.33-1.79l-0.549-3.267
	c3.256-0.241,6.221-1.513,8.568-3.503l3.271,4.2c-0.74,1.2-0.92,2.34-0.37,2.89c0.78,0.78,2.74,0.08,4.38-1.56s2.34-3.6,1.56-4.38
	c-0.55-0.55-1.69-0.37-2.89,0.37l-4.2-3.271c1.949-2.299,3.215-5.189,3.494-8.367l3.276,0.547c0.33,1.38,1.01,2.33,1.79,2.33
	c1.1,0,2-1.88,2-4.2C45.999,22.681,45.099,20.801,43.999,20.801z"/><circle cx="55" cy="9" r="5" fill="#ff4d6f"/><circle cx="33" cy="55" r="2" fill="#ff4d6f"/><circle cx="53" cy="37" r="3" fill="#ff4d6f"/><circle cx="60.833" cy="27" r="2.167" fill="#ff4d6f"/><polyline fill="none" points="31.999 15.591 33.629 13.521 36.679 9.651"/><polyline fill="none" points="39.359 12.321 35.479 15.371 33.409 17.001"/><polyline fill="none" points="33.899 33.491 35.439 34.691 39.639 37.961"/><polyline fill="none" points="36.959 40.641 33.689 36.441 32.489 34.901"/><polyline fill="none" points="7.119 39.321 12.599 34.741 14.099 33.491"/><line x1="36.999" x2="42.209" y1="26.001" y2="26.871" fill="none"/><polyline fill="none" points="42.209 23.131 38.939 23.681 36.999 24.001"/><circle cx="24" cy="25" r="11" fill="#ea2d63"/><circle cx="17" cy="23" r="2" fill="#ff4d6f"/><circle cx="26" cy="20" r="3" fill="#ff4d6f"/><circle cx="30" cy="30" r="2" fill="#ff4d6f"/><path d="M39.734 36.766l-2.893-2.253c.904-1.215 1.634-2.531 2.155-3.935.192-.518-.071-1.093-.589-1.286-.518-.191-1.094.071-1.286.589-.45 1.212-1.078 2.35-1.856 3.404l-.751-.585c-1.025-.797-2.283.757-1.229 1.578l5.739 4.47c.006.005.014.006.02.011.183.135.493.2.593.2.094 0 .457-.107.525-.149.951-.586 1.561-.582 1.655-.518.136.206-.076 1.49-1.557 2.97-1.479 1.479-2.762 1.694-2.963 1.563-.068-.102-.076-.709.511-1.661.004-.006.003-.013.007-.019.059-.1.165-.482.134-.382.038-.305-.119-.619-.194-.719-.004-.006-.005-.013-.009-.019l-4.47-5.741c-.368-.473-1.053-.448-1.403-.174 0 0 0 0 0 0 0 0 0 0 0 0-.411.321-.511.971-.174 1.403l.588.755c-2.067 1.526-4.486 2.448-7.057 2.675-.496.043-.995.582-.899 1.162l.55 3.268c0 .001 0 .001 0 .002l0 .001c.069.41.402.723.754.807 1.099.263 1.536.702 1.563.812C27.149 45.237 26.089 46 24 46s-3.149-.763-3.201-.994c.027-.122.464-.561 1.563-.824.403-.096.699-.48.754-.807l0-.001c0 0 0-.001 0-.002l.55-3.268c.077-.464-.278-1.105-.896-1.162-1.665-.149-3.242-.576-4.689-1.266-1.192-.571-2.056 1.235-.861 1.805 1.347.643 2.793 1.075 4.303 1.311l-.275 1.632C19.703 42.949 18.8 43.883 18.8 45c0 1.738 2.187 3 5.2 3s5.2-1.262 5.2-3c0-1.117-.903-2.051-2.448-2.574L26.479 40.8c2.557-.399 4.956-1.406 7.038-2.954l2.25 2.889c-.702 1.437-.67 2.716.116 3.502.415.415.968.615 1.602.615 1.238 0 2.782-.764 4.192-2.174 2.131-2.13 2.787-4.566 1.561-5.794C42.452 36.097 41.171 36.064 39.734 36.766zM16.28 35.54l-5.37 6.43c1.03 1.79 1.11 3.43.17 4.37C10.63 46.79 10.03 47 9.33 47c-1.4 0-3.18-.88-4.81-2.51-2.44-2.45-3.22-5.21-1.86-6.57.94-.94 2.58-.86 4.37.17l4.18-3.49c-.67-.89-1.24-1.83-1.7-2.83-.65-1.38-1.08-2.84-1.31-4.36l-2.64.38C5.03 29.31 4.11 30.2 3 30.2c-1.74 0-3-2.19-3-5.2s1.26-5.2 3-5.2c1.11 0 2.03.89 2.56 2.41l5.58.8c1.31.19 1.03 2.17-.28 1.98L4.64 24.1c-.46-.07-.76-.46-.83-.75-.26-1.1-.7-1.53-.81-1.55-.24.05-1 1.11-1 3.2s.76 3.15 1.01 3.2c.1-.02.54-.45.8-1.54.09-.41.46-.7.82-.76.01 0 4.29-.61 4.29-.61.5-.07 1.09.34 1.14.91.13 1.65.56 3.24 1.26 4.72.39.84.87 1.65 1.43 2.4l.71-.6c.81-.67 2.07.27 1.5 1.26-.06.1-.13.2-.22.28 0 0-6.978 5.828-6.98 5.83-.348.291-.899.264-1.21.05-1.38-.95-2.32-.96-2.47-.8-.27.27.04 1.91 1.85 3.73 1.82 1.81 3.46 2.12 3.73 1.85.16-.15.15-1.09-.8-2.47-.218-.317-.225-.881.05-1.21 0 0 5.83-6.98 5.83-6.98C15.615 33.24 17.111 34.543 16.28 35.54zM9.557 14.479l1.531 1.101c-.876 1.198-1.586 2.497-2.096 3.885-.46 1.25 1.42 1.93 1.877.69.878-2.389 2.413-4.453 4.145-5.88 2.17-1.824 4.875-3 7.829-3.22.668-.056.96-.719.909-1.119 0 0-.66-5.28-.666-5.298-.064-.446-.411-.73-.752-.83-1.091-.263-1.512-.692-1.535-.802C20.851 2.763 21.911 2 24 2s3.149.763 3.2.997c-.022.118-.443.548-1.55.818-.364.094-.658.37-.743.841-.03.241-.957 7.681-.9 7.221-.163 1.33 1.824 1.536 1.984.247.028-.224.846-6.783.819-6.569C28.32 5.031 29.2 4.105 29.2 3c0-1.738-2.187-3-5.2-3s-5.2 1.262-5.2 3c0 1.105.88 2.031 2.389 2.555l.452 3.622c-2.643.38-4.994 1.393-7.063 2.911l-1.098-1.528c.717-1.449.694-2.739-.093-3.526-1.226-1.227-3.665-.571-5.794 1.56-2.13 2.131-2.786 4.568-1.56 5.794C6.958 15.312 8.378 15.061 9.557 14.479zM9.007 10.007c1.48-1.48 2.764-1.693 2.962-1.564.068.107.072.702-.521 1.662 0 0 0 .001-.001.001-.069.113-.115.237-.135.366-.01.066.003.13.006.196.002.063-.007.126.008.188.03.127.083.248.161.356 0 0 0 .001.001.002l1.55 2.156c-.231.216-.453.438-.668.668l-2.156-1.55c-.001 0-.001 0-.002-.001-.108-.077-.229-.131-.357-.161-.037-.008-.075 0-.112-.005-.091-.011-.182-.023-.273-.008-.127.021-.25.066-.362.134-.001.001-.002.001-.003.001-.96.592-1.554.589-1.655.528C7.315 12.771 7.527 11.488 9.007 10.007zM44 19.8c-1.116 0-2.051.903-2.574 2.447l-1.62.271c-.165-1.062-.436-2.099-.809-3.094-.516-1.396-1.232-2.693-2.116-3.881l2.583-2.031c.677.326 1.321.492 1.892.492.646 0 1.202-.208 1.62-.625.39-.389.958-1.287.388-2.926-.337-.97-1.019-2-1.917-2.899-2.131-2.13-4.582-2.771-5.824-1.53-.787.787-.826 2.074-.134 3.524l-2.03 2.577c-1.207-.896-2.524-1.623-3.94-2.15-1.244-.459-1.935 1.414-.697 1.875 1.22.454 2.357 1.077 3.401 1.845l-1.008 1.279c-.812 1.03.752 2.277 1.571 1.237l4.679-5.939c.004-.005.005-.012.008-.017.292-.385.209-.859.069-1.101-.003-.005-.003-.012-.006-.017-.612-1.016-.566-1.617-.499-1.697.187-.182 1.536.072 2.996 1.53.68.68 1.205 1.46 1.442 2.142.184.526.127.814.087.854-.079.067-.682.111-1.683-.497-.006-.003-.012-.003-.018-.007-.343-.2-.826-.143-1.102.065-.006.004-.013.005-.018.009l-3.909 3.074c0 0-.001 0-.002.001 0 0 0 .001-.001.001l-2.039 1.604c0 0 0 0 0 0l0 0c-.982.772.165 2.412 1.237 1.572l1.282-1.009c.755 1.024 1.367 2.141 1.812 3.343.328.877.565 1.791.71 2.727l-.996.166c0 0 0 0-.001 0l-.001 0c-1.004.168-1.144 1.568-.181 1.924C36.762 24.978 36.879 25 36.999 25c.126 0 5.271-.866 5.372-.883.212-.034.475-.193.375-.143.225-.143.381-.375.438-.615.263-1.097.701-1.533.811-1.56C44.236 21.851 45 22.912 45 25s-.764 3.149-.994 3.201c-.121-.027-.56-.463-.823-1.562-.091-.38-.451-.695-.808-.755l-5.21-.87c-1.309-.216-1.632 1.755-.33 1.973l4.591.767C41.949 29.297 42.883 30.2 44 30.2c1.738 0 3-2.187 3-5.2S45.738 19.8 44 19.8zM17 20c-1.654 0-3 1.346-3 3s1.346 3 3 3 3-1.346 3-3S18.654 20 17 20zM17 24c-.551 0-1-.449-1-1s.449-1 1-1 1 .449 1 1S17.551 24 17 24zM26 16c-2.206 0-4 1.794-4 4s1.794 4 4 4 4-1.794 4-4S28.206 16 26 16zM26 22c-1.103 0-2-.897-2-2s.897-2 2-2 2 .897 2 2S27.103 22 26 22z"/><path d="M27,30c0,1.654,1.346,3,3,3s3-1.346,3-3s-1.346-3-3-3S27,28.346,27,30z M31,30c0,0.551-0.449,1-1,1s-1-0.449-1-1
	s0.449-1,1-1S31,29.449,31,30z"/><circle cx="18.495" cy="30.5" r="1.005"/><circle cx="32.995" cy="22" r="1.005"/><circle cx="25" cy="33" r="1.005"/><circle cx="14.005" cy="49" r="1.005"/><circle cx="19.005" cy="57" r="1.005"/><circle cx="51" cy="55.005" r="1.005"/><path d="M21.536,26.454c0,0.552,0.453,1.005,1.005,1.005s1.005-0.453,1.005-1.005s-0.453-1.005-1.005-1.005
	S21.536,25.902,21.536,26.454z"/><circle cx="56.005" cy="10.995" r="1.005"/><circle cx="57.005" cy="7.995" r="1.005"/><circle cx="52.995" cy="7.995" r="1.005"/><path d="M62 8h-1.09c-.154-.909-.51-1.749-1.025-2.471l.772-.772 0 0c.928.928 2.351-.477 1.414-1.414l-1.414-1.414c-.936-.936-2.349.478-1.414 1.414l-.772.772C57.749 3.6 56.909 3.244 56 3.09V2c1.324 0 1.323-2 0-2h-2c-1.324 0-1.323 2 0 2v1.09c-.909.154-1.749.51-2.471 1.024l-.772-.772c.935-.936-.479-2.349-1.414-1.414l-1.414 1.414c-.936.936.479 2.35 1.414 1.414l0 0 .772.772C49.6 6.251 49.244 7.091 49.09 8H48c0-1.323-2-1.324-2 0v2c0 1.323 2 1.324 2 0h1.09c.154.909.51 1.749 1.025 2.471l-.772.772 0 0c-.936-.936-2.349.479-1.414 1.414l1.414 1.414c.936.936 2.349-.478 1.414-1.414l.772-.772C52.251 14.4 53.091 14.756 54 14.91V16c-1.324 0-1.323 2 0 2h2c1.324 0 1.323-2 0-2v-1.09c.909-.154 1.749-.51 2.471-1.024l.772.772c-.935.936.479 2.349 1.414 1.414l1.414-1.414c.936-.936-.479-2.349-1.414-1.414l0 0-.772-.772C60.4 11.749 60.756 10.909 60.91 10H62c0 1.323 2 1.324 2 0V8C64 6.677 62 6.676 62 8zM55 13c-2.206 0-4-1.794-4-4s1.794-4 4-4 4 1.794 4 4S57.206 13 55 13zM33 52c-1.654 0-3 1.346-3 3s1.346 3 3 3 3-1.346 3-3S34.654 52 33 52zM33 56c-.551 0-1-.449-1-1s.449-1 1-1c.552 0 1 .449 1 1S33.552 56 33 56zM53 33c-2.206 0-4 1.794-4 4s1.794 4 4 4 4-1.794 4-4S55.206 33 53 33zM53 39c-1.103 0-2-.897-2-2s.897-2 2-2 2 .897 2 2S54.103 39 53 39zM60.833 23.833c-1.746 0-3.166 1.42-3.166 3.167s1.42 3.167 3.166 3.167S64 28.746 64 27 62.579 23.833 60.833 23.833zM60.833 28.167c-.643 0-1.166-.523-1.166-1.167s.523-1.167 1.166-1.167C61.477 25.833 62 26.357 62 27S61.477 28.167 60.833 28.167z"/></svg>