<?xml version="1.0" encoding="iso-8859-1"?>
<!-- Generator: Adobe Illustrator 19.0.0, SVG Export Plug-In . SVG Version: 6.00 Build 0)  -->
<svg version="1.1" id="Layer_1" xmlns="http://www.w3.org/2000/svg" xmlns:xlink="http://www.w3.org/1999/xlink" x="0px" y="0px"
	 viewBox="0 0 511.992 511.992" style="enable-background:new 0 0 511.992 511.992;" xml:space="preserve">
<path style="fill:#FC6E51;" d="M447.432,213.909c-22.922-22.921-57.029-27.82-84.748-14.703v-39.21
	C362.685,71.631,291.062,0,202.689,0C114.324,0,42.693,71.631,42.693,159.996V447.99h319.992v-43.733l84.748-84.765
	C476.588,290.337,476.588,243.072,447.432,213.909z"/>
<rect x="64.015" y="447.994" style="fill:#FFCE54;" width="277.34" height="63.998"/>
<g>
	<path style="fill:#F6BB42;" d="M138.689,479.989c-5.891,0-10.672,4.781-10.672,10.656v21.343h21.335v-21.343
		C149.352,484.77,144.579,479.989,138.689,479.989z"/>
	<path style="fill:#F6BB42;" d="M266.685,479.989c-5.891,0-10.672,4.781-10.672,10.656v21.343h21.344v-21.343
		C277.357,484.77,272.576,479.989,266.685,479.989z"/>
	<path style="fill:#F6BB42;" d="M202.555,479.989c-5.891,0-10.664,4.781-10.664,10.656v21.343h21.336v-21.343
		C213.227,484.77,208.453,479.989,202.555,479.989z"/>
</g>
<path style="fill:#E9573F;" d="M202.688,63.998c-53.022,0-95.998,42.983-95.998,95.998c0,0.844,0.016,1.688,0.039,2.523
	c-0.023,0.273-0.039,0.547-0.039,0.82c0,5.891,4.773,10.672,10.664,10.672c5.891,0,10.664-4.781,10.664-10.672h0.078
	c-0.047-1.109-0.078-2.227-0.078-3.344c0-19.944,7.773-38.694,21.874-52.795c14.102-14.101,32.852-21.867,52.796-21.867
	c5.891,0,10.664-4.781,10.664-10.672S208.578,63.998,202.688,63.998z"/>
<g>
</g>
<g>
</g>
<g>
</g>
<g>
</g>
<g>
</g>
<g>
</g>
<g>
</g>
<g>
</g>
<g>
</g>
<g>
</g>
<g>
</g>
<g>
</g>
<g>
</g>
<g>
</g>
<g>
</g>
</svg>
