<svg version="1.2" xmlns="http://www.w3.org/2000/svg" viewBox="0 0 512 512" width="512" height="512">
	<title>ski</title>
	<style>
		.s0 { fill: #000000 } 
	</style>
	<g id="Background">
		<path id="Path 0" class="s0" d="m449.5 50.6c-3.9 0.6-9.8 2.6-13.5 4.4-3.6 1.9-9 5.8-12.1 8.9-3.5 3.5-6.9 8.4-9.2 13.1-2.6 5.3-4 9.9-4.8 15.5-0.8 6.5-0.7 9.4 0.5 15.5 0.9 4.1 2.8 10 4.3 13 1.5 3.1 5.5 8.4 9.2 12.1 4.3 4.3 8.8 7.6 13.1 9.7 3.6 1.7 9.6 3.7 13.5 4.3 5.5 1 8.7 1 15 0.1 4.6-0.7 10.7-2.5 14.3-4.2 3.4-1.7 8.5-5.1 11.3-7.8 2.8-2.6 6.4-6.5 7.9-8.7 1.5-2.2 3.7-6.4 4.9-9.3 1.2-2.8 2.5-8.4 3.1-12.2 0.7-4.7 0.7-9.2 0-13.8-0.6-3.7-2.6-9.9-4.5-14-2.2-4.4-5.5-9.3-8.8-12.5-2.8-2.9-7.5-6.6-10.2-8.2-2.8-1.6-6.8-3.6-9-4.3-2.2-0.8-7.1-1.7-11-2.1-4.1-0.4-9.9-0.2-14 0.5z"/>
		<path id="Path 1" class="s0" d="m128.5 24.9c-2.2 1-5 2.9-6.2 4.2-1.2 1.3-2.9 4.1-3.7 6.2-0.9 2-1.6 5.3-1.6 7.2 0 1.9 0.7 5.2 1.6 7.3 0.8 2 2.5 4.8 3.7 6.1 1.2 1.2 52 35.7 112.9 76.5l110.7 74.1c-1.1 18-0.9 21.1 0.5 25.5 1 3 3.2 7 4.9 8.9 1.8 1.8 5 4.2 7.2 5.2 2.2 1 23.8 7.3 48 14 38.8 10.8 44.9 12.3 52 12.3 6.9 0.1 8.6-0.3 12.5-2.5 2.5-1.4 6-4.4 7.8-6.5 1.8-2.1 3.9-6.1 4.7-8.9 0.9-2.7 1.5-6.5 1.5-8.2 0-1.8-0.7-5.4-1.6-8-0.9-2.7-2.8-6.3-4.3-8.2-1.4-1.9-4.3-4.5-6.4-5.8-2-1.2-14.8-5.4-28.5-9.3-24.2-6.7-24.9-7-33-12.7-4.5-3.2-8.3-5.9-8.2-6 0-0.2 1.8-9.1 4-19.8 2.2-10.7 4-21.9 4-24.7 0-2.9-0.5-7.1-1.1-9.3-0.6-2.2-3.9-9.8-7.4-17-4.7-9.7-7.6-14.4-11.7-18.5-3.1-3.3-7.7-6.7-11.1-8.3-3.1-1.5-8.1-3.2-11-3.8-2.9-0.7-8.1-0.9-11.7-0.5-3.6 0.3-9.2 1.6-12.5 2.9-3.3 1.3-11.9 5.3-19 8.9l-13 6.5c35.6 23.7 46.2 30.8 46.5 31 0.3 0.2-0.3 4.3-1.3 9.1-1 4.8-2.1 9.3-2.5 10-0.5 1-29.8-18-104.7-67.9-57.2-38.1-105.5-69.8-107.3-70.6-1.7-0.7-4.9-1.3-7-1.3-2 0-5.5 0.9-7.7 1.9z"/>
		<path id="Path 2" class="s0" d="m224.5 156.4c-2.8 1.8-7.4 5.9-10.3 9.2-3 3.2-6.7 8.6-8.3 11.9-1.6 3.3-3.5 8.7-4.4 12-0.8 3.3-1.5 8.7-1.5 12 0 3.3 0.7 8.7 1.5 12 0.9 3.3 2.8 8.5 4.3 11.5 1.6 3.3 5.9 8.6 10.7 13.5q8 8 38.8 30.3c16.9 12.2 30.6 22.4 30.5 22.5-0.2 0.2-18.7 16-41.3 35.1l-41 34.8c-138-47.6-180-61.7-182.5-62-3.5-0.4-5.6 0.1-9.5 1.9-3 1.5-6 3.9-7.7 6.4-1.6 2.2-3.1 6-3.4 8.5-0.4 2.5-0.1 6.2 0.5 8.2 0.6 2.1 2.8 5.6 4.9 7.9l3.7 4c340.2 117.2 441 151.7 443.5 152.2 3.3 0.8 5.7 0.7 9-0.2 2.5-0.7 13.2-6.5 23.9-12.9 14.8-8.9 20.1-12.7 22.3-15.7 1.6-2.3 3.1-5.9 3.4-8.5 0.4-2.5 0.1-6.2-0.5-8.2-0.6-2.1-2.6-5.4-4.3-7.5-1.8-2-4.8-4.2-6.5-5-1.8-0.7-5.5-1.3-8.3-1.3-2.9 0-6.6 0.8-8.7 1.9-2.1 1-9.1 5.1-15.5 9-6.5 3.9-12.5 7.1-13.3 7.1-0.8 0-41.4-13.8-90.3-30.6-48.8-16.8-88.8-30.6-88.9-30.7-0.1-0.1 17-14.6 38-32.2 20.9-17.6 41.2-35 45.1-38.6 4-3.8 8.2-8.8 9.5-11.5 1.8-3.5 2.6-7.1 2.9-12.4 0.3-5.9-0.1-8.7-1.7-13-1.1-3-3.5-7.3-5.3-9.4-1.8-2.2-14.4-12-28-21.8-13.7-9.8-24.6-18.1-24.4-18.5 0.2-0.5 4.2-2.6 9-4.8 4.7-2.2 8.6-4.2 8.6-4.5 0-0.3-22.2-15.2-49.3-33.2-27-18.1-49.4-32.8-49.7-32.7-0.3 0-2.7 1.5-5.5 3.3z"/>
	</g>
</svg>